<svg width="121" height="20" viewBox="0 0 121 20" fill="none" xmlns="http://www.w3.org/2000/svg">
<path d="M0.647727 5.36364V1.54545H15.8182V5.36364H10.5682V19H5.89773V5.36364H0.647727ZM16.3104 19V5.90909H20.8786V8.39773H21.0149C21.2536 7.47727 21.6314 6.80398 22.1484 6.37784C22.6712 5.9517 23.282 5.73864 23.9808 5.73864C24.1854 5.73864 24.3871 5.75568 24.5859 5.78977C24.7905 5.81818 24.9865 5.8608 25.174 5.91761V9.93182C24.9411 9.85227 24.6541 9.79261 24.3132 9.75284C23.9723 9.71307 23.6797 9.69318 23.4354 9.69318C22.9751 9.69318 22.5604 9.7983 22.1911 10.0085C21.8274 10.2131 21.5405 10.5028 21.3303 10.8778C21.12 11.2472 21.0149 11.6818 21.0149 12.1818V19H16.3104ZM32.2393 19.2386C30.8416 19.2386 29.6371 18.9716 28.6257 18.4375C27.62 17.8977 26.8445 17.125 26.299 16.1193C25.7592 15.108 25.4893 13.8977 25.4893 12.4886C25.4893 11.1364 25.7621 9.95455 26.3075 8.94318C26.853 7.93182 27.6229 7.14489 28.6172 6.58239C29.6115 6.01989 30.7848 5.73864 32.1371 5.73864C33.1257 5.73864 34.0206 5.89205 34.8217 6.19886C35.6229 6.50568 36.3075 6.9517 36.8757 7.53693C37.4439 8.11648 37.8814 8.82102 38.1882 9.65057C38.495 10.4801 38.6484 11.4148 38.6484 12.4545V13.5455H26.9553V10.9545H34.3189C34.3132 10.5795 34.2166 10.25 34.0291 9.96591C33.8473 9.67614 33.6001 9.4517 33.2876 9.29261C32.9808 9.12784 32.6314 9.04545 32.2393 9.04545C31.8587 9.04545 31.5092 9.12784 31.1911 9.29261C30.8729 9.4517 30.6172 9.6733 30.424 9.95739C30.2365 10.2415 30.1371 10.5739 30.1257 10.9545V13.75C30.1257 14.1705 30.2138 14.5455 30.3899 14.875C30.5661 15.2045 30.8189 15.4631 31.1484 15.6506C31.478 15.8381 31.8757 15.9318 32.3416 15.9318C32.6655 15.9318 32.9609 15.8864 33.228 15.7955C33.5007 15.7045 33.7337 15.5739 33.9268 15.4034C34.12 15.2273 34.2621 15.017 34.353 14.7727H38.6484C38.5007 15.6818 38.1513 16.4716 37.6001 17.142C37.049 17.8068 36.3189 18.3239 35.4098 18.6932C34.5064 19.0568 33.4496 19.2386 32.2393 19.2386ZM40.5682 19V5.90909H45.2727V19H40.5682ZM42.9205 4.54545C42.2841 4.54545 41.7386 4.33523 41.2841 3.91477C40.8295 3.49432 40.6023 2.98864 40.6023 2.39773C40.6023 1.80682 40.8295 1.30114 41.2841 0.880681C41.7386 0.460227 42.2841 0.25 42.9205 0.25C43.5625 0.25 44.108 0.460227 44.5568 0.880681C45.0114 1.30114 45.2386 1.80682 45.2386 2.39773C45.2386 2.98864 45.0114 3.49432 44.5568 3.91477C44.108 4.33523 43.5625 4.54545 42.9205 4.54545ZM52.3743 11.6364V19H47.6697V5.90909H52.1357V8.39773H52.272C52.5561 7.56818 53.0561 6.91761 53.772 6.44602C54.4936 5.97443 55.3345 5.73864 56.2947 5.73864C57.2209 5.73864 58.0249 5.9517 58.7067 6.37784C59.3942 6.7983 59.9254 7.37784 60.3004 8.11648C60.6811 8.85511 60.8686 9.69886 60.8629 10.6477V19H56.1584V11.6364C56.1641 10.9886 55.9993 10.4801 55.6641 10.1108C55.3345 9.74148 54.8743 9.55682 54.2834 9.55682C53.897 9.55682 53.5589 9.64205 53.2692 9.8125C52.9851 9.97727 52.7663 10.2159 52.6129 10.5284C52.4595 10.8352 52.38 11.2045 52.3743 11.6364ZM69.4581 19.2386C68.0604 19.2386 66.8558 18.9716 65.8445 18.4375C64.8388 17.8977 64.0632 17.125 63.5178 16.1193C62.978 15.108 62.7081 13.8977 62.7081 12.4886C62.7081 11.1364 62.9808 9.95455 63.5263 8.94318C64.0717 7.93182 64.8416 7.14489 65.8359 6.58239C66.8303 6.01989 68.0036 5.73864 69.3558 5.73864C70.3445 5.73864 71.2393 5.89205 72.0405 6.19886C72.8416 6.50568 73.5263 6.9517 74.0945 7.53693C74.6626 8.11648 75.1001 8.82102 75.407 9.65057C75.7138 10.4801 75.8672 11.4148 75.8672 12.4545V13.5455H64.174V10.9545H71.5376C71.532 10.5795 71.4354 10.25 71.2479 9.96591C71.0661 9.67614 70.8189 9.4517 70.5064 9.29261C70.1996 9.12784 69.8501 9.04545 69.4581 9.04545C69.0774 9.04545 68.728 9.12784 68.4098 9.29261C68.0916 9.4517 67.8359 9.6733 67.6428 9.95739C67.4553 10.2415 67.3558 10.5739 67.3445 10.9545V13.75C67.3445 14.1705 67.4325 14.5455 67.6087 14.875C67.7848 15.2045 68.0376 15.4631 68.3672 15.6506C68.6967 15.8381 69.0945 15.9318 69.5604 15.9318C69.8842 15.9318 70.1797 15.8864 70.4467 15.7955C70.7195 15.7045 70.9524 15.5739 71.1456 15.4034C71.3388 15.2273 71.4808 15.017 71.5717 14.7727H75.8672C75.7195 15.6818 75.37 16.4716 74.8189 17.142C74.2678 17.8068 73.5376 18.3239 72.6286 18.6932C71.7251 19.0568 70.6683 19.2386 69.4581 19.2386ZM80.3438 19.2727C79.6847 19.2727 79.1193 19.0426 78.6477 18.5824C78.1818 18.1165 77.9517 17.5511 77.9574 16.8864C77.9517 16.2386 78.1818 15.6847 78.6477 15.2244C79.1193 14.7642 79.6847 14.5341 80.3438 14.5341C80.9688 14.5341 81.5199 14.7642 81.9972 15.2244C82.4801 15.6847 82.7244 16.2386 82.7301 16.8864C82.7244 17.3295 82.608 17.733 82.3807 18.0966C82.1591 18.4545 81.8693 18.7415 81.5114 18.9574C81.1534 19.1676 80.7642 19.2727 80.3438 19.2727ZM85.2869 19V5.90909H89.7528V8.39773H89.8892C90.1619 7.57955 90.6278 6.93182 91.2869 6.45454C91.946 5.97727 92.7301 5.73864 93.6392 5.73864C94.5597 5.73864 95.3523 5.98295 96.017 6.47159C96.6818 6.95455 97.0824 7.59659 97.2188 8.39773H97.3551C97.5767 7.59659 98.0483 6.95455 98.7699 6.47159C99.4915 5.98295 100.338 5.73864 101.31 5.73864C102.565 5.73864 103.582 6.14205 104.361 6.94886C105.145 7.75568 105.537 8.82955 105.537 10.1705V19H100.832V11.3636C100.832 10.7898 100.688 10.3409 100.398 10.017C100.108 9.6875 99.7188 9.52273 99.2301 9.52273C98.7472 9.52273 98.3636 9.6875 98.0795 10.017C97.8011 10.3409 97.6619 10.7898 97.6619 11.3636V19H93.1619V11.3636C93.1619 10.7898 93.017 10.3409 92.7273 10.017C92.4375 9.6875 92.0483 9.52273 91.5597 9.52273C91.2358 9.52273 90.9574 9.59659 90.7244 9.74432C90.4915 9.89205 90.3097 10.1051 90.179 10.3835C90.054 10.6562 89.9915 10.983 89.9915 11.3636V19H85.2869ZM114.13 19.2386C112.732 19.2386 111.528 18.9716 110.516 18.4375C109.511 17.8977 108.735 17.125 108.19 16.1193C107.65 15.108 107.38 13.8977 107.38 12.4886C107.38 11.1364 107.653 9.95455 108.198 8.94318C108.744 7.93182 109.513 7.14489 110.508 6.58239C111.502 6.01989 112.675 5.73864 114.028 5.73864C115.016 5.73864 115.911 5.89205 116.712 6.19886C117.513 6.50568 118.198 6.9517 118.766 7.53693C119.335 8.11648 119.772 8.82102 120.079 9.65057C120.386 10.4801 120.539 11.4148 120.539 12.4545V13.5455H108.846V10.9545H116.21C116.204 10.5795 116.107 10.25 115.92 9.96591C115.738 9.67614 115.491 9.4517 115.178 9.29261C114.871 9.12784 114.522 9.04545 114.13 9.04545C113.749 9.04545 113.4 9.12784 113.082 9.29261C112.763 9.4517 112.508 9.6733 112.315 9.95739C112.127 10.2415 112.028 10.5739 112.016 10.9545V13.75C112.016 14.1705 112.104 14.5455 112.281 14.875C112.457 15.2045 112.71 15.4631 113.039 15.6506C113.369 15.8381 113.766 15.9318 114.232 15.9318C114.556 15.9318 114.852 15.8864 115.119 15.7955C115.391 15.7045 115.624 15.5739 115.817 15.4034C116.011 15.2273 116.153 15.017 116.244 14.7727H120.539C120.391 15.6818 120.042 16.4716 119.491 17.142C118.94 17.8068 118.21 18.3239 117.3 18.6932C116.397 19.0568 115.34 19.2386 114.13 19.2386Z" fill="#89C5CC"/>
</svg>
