<svg width="16" height="16" viewBox="0 0 16 16" fill="none" xmlns="http://www.w3.org/2000/svg">
<circle cx="8" cy="8" r="8" fill="#69B99D"/>
<path d="M12.4444 9.94444C11.75 9.94444 11.0833 9.83333 10.4611 9.62778C10.2667 9.56667 10.05 9.61111 9.89444 9.76111L8.67222 10.9833C7.1 10.1833 5.81111 8.9 5.01111 7.32222L6.23333 6.09444C6.38889 5.95 6.43333 5.73333 6.37222 5.53889C6.16667 4.91667 6.05556 4.25 6.05556 3.55556C6.05556 3.25 5.80556 3 5.5 3H3.55556C3.25 3 3 3.25 3 3.55556C3 8.77222 7.22778 13 12.4444 13C12.75 13 13 12.75 13 12.4444V10.5C13 10.1944 12.75 9.94444 12.4444 9.94444ZM13 4.66667H11.3333V3H10.2222V4.66667H8.55556V5.77778H10.2222V7.44444H11.3333V5.77778H13V4.66667Z" fill="black" fill-opacity="0.54"/>
</svg>
